# xmcd CD database file
#
# Track frame offsets:
#	150
#	8708
#	30305
#	44210
#	60651
#	98604
#	135277
#	157524
#	186622
#
# Disc length: 3162 seconds
#
# Revision: 0
# Processed by: cddbd v1.5.1PL0 Copyright (c) Steve Scherf et al.
# Submitted via: CDex 1.51
#
DISCID=660c5809
DTITLE=Grzech Piotrowski - Sin
DYEAR=2005
DGENRE=Jazz
TTITLE0=Moje slonce
TTITLE1=Chik Chika
TTITLE2=O dwoch takich co ukradli ksiezyc
TTITLE3=Introwertyk
TTITLE4=Tylko my
TTITLE5=Neverland
TTITLE6=Hormon
TTITLE7=Cien
TTITLE8=Sin
EXTD=YEAR: 2005
EXTT0=
EXTT1=
EXTT2=
EXTT3=
EXTT4=
EXTT5=
EXTT6=
EXTT7=
EXTT8=
PLAYORDER=
